<svg id="Capa_1" data-name="Capa 1" xmlns="http://www.w3.org/2000/svg" viewBox="0 0 931.69 921.47">
  <defs>
    <style>
      .cls-1 {
        fill: #02fe82;
      }

      .cls-2 {
        fill: #04fb87;
      }

      .cls-3 {
        fill: #00fe85;
      }
    </style>
  </defs>
  <path class="cls-3" d="M907.03,585.9c-7.67,86.67-61.62,137.7-110.78,190.14-172.66,184.22-459.27,192.01-640.05,31.36C63.08,724.66,1.34,610.78.05,482.99c-1.34-132.41,26.5-275.53,113.91-238.61,26.09,11.02,48.16,52.84,36.85,85.33-56.46,162.24-9.37,324.11,129.93,413.35,107.2,68.67,256.68,67.38,359.51,1.43,152.8-98,118.46-234.16,215.12-216.35,19.87,3.66,54.34,27.52,51.67,57.75Z"/>
  <path class="cls-2" d="M918.66,428.15c-11.48,15.18-50.35,27.41-66.27,26.49-44.28-2.57-68.43-53.95-58.91-84.76,13.34-43.21,50.43-62.44,93.12-48.84,33.29,10.61,63.07,66.13,32.07,107.11Z"/>
  <path class="cls-1" d="M259.82,191.49c-43.6,36.26-79.08,12.48-99.38-15.47-26.16-36.03-10.05-86.89,35.78-100.48,27.94-8.29,63.2,9.81,74.75,33.31,11.93,24.29,11.26,64.01-11.15,82.65Z"/>
  <path class="cls-2" d="M827.88,159.52c27.31,30.44,14.01,70.35-7.18,88.02-28.25,23.56-68.7,24.28-92.17,2.33-25.36-23.72-32.9-69.2-4.51-96.24,23.78-22.66,79.53-21.24,103.87,5.9Z"/>
  <circle class="cls-2" cx="606.76" cy="82.31" r="66.14"/>
  <circle class="cls-2" cx="402.12" cy="63.79" r="63.79"/>
</svg>